<mxfile host="app.diagrams.net" modified="2022-06-30T04:52:31.319Z" agent="5.0 (Windows NT 10.0; Win64; x64) AppleWebKit/537.36 (KHTML, like Gecko) Chrome/102.0.0.0 Safari/537.36" etag="GzGNXMwR9uPxGGxqwDDA" version="20.0.4" type="github">
  <diagram name="Page-1" id="b520641d-4fe3-3701-9064-5fc419738815">
    <mxGraphModel dx="989" dy="605" grid="1" gridSize="10" guides="1" tooltips="1" connect="1" arrows="1" fold="1" page="1" pageScale="1" pageWidth="1100" pageHeight="850" background="none" math="0" shadow="0">
      <root>
        <mxCell id="0" />
        <mxCell id="1" parent="0" />
        <mxCell id="R6oLTE6TlrkwnEL_-1PJ-22" value="" style="edgeStyle=orthogonalEdgeStyle;rounded=0;orthogonalLoop=1;jettySize=auto;html=1;" edge="1" parent="1" source="R6oLTE6TlrkwnEL_-1PJ-1" target="R6oLTE6TlrkwnEL_-1PJ-21">
          <mxGeometry relative="1" as="geometry" />
        </mxCell>
        <mxCell id="R6oLTE6TlrkwnEL_-1PJ-1" value="Students" style="shape=umlActor;verticalLabelPosition=bottom;verticalAlign=top;html=1;outlineConnect=0;" vertex="1" parent="1">
          <mxGeometry x="120" y="225" width="30" height="60" as="geometry" />
        </mxCell>
        <mxCell id="R6oLTE6TlrkwnEL_-1PJ-2" value="Flat Owner" style="shape=umlActor;verticalLabelPosition=bottom;verticalAlign=top;html=1;outlineConnect=0;" vertex="1" parent="1">
          <mxGeometry x="1010" y="150" width="30" height="60" as="geometry" />
        </mxCell>
        <mxCell id="R6oLTE6TlrkwnEL_-1PJ-35" style="edgeStyle=orthogonalEdgeStyle;rounded=0;orthogonalLoop=1;jettySize=auto;html=1;exitX=0;exitY=0.3333333333333333;exitDx=0;exitDy=0;exitPerimeter=0;" edge="1" parent="1" source="R6oLTE6TlrkwnEL_-1PJ-4">
          <mxGeometry relative="1" as="geometry">
            <mxPoint x="860" y="245.47619047619048" as="targetPoint" />
          </mxGeometry>
        </mxCell>
        <mxCell id="R6oLTE6TlrkwnEL_-1PJ-36" style="edgeStyle=orthogonalEdgeStyle;rounded=0;orthogonalLoop=1;jettySize=auto;html=1;exitX=0.5;exitY=0.5;exitDx=0;exitDy=0;exitPerimeter=0;entryX=0.5;entryY=0.5;entryDx=0;entryDy=0;entryPerimeter=0;" edge="1" parent="1" source="R6oLTE6TlrkwnEL_-1PJ-4" target="R6oLTE6TlrkwnEL_-1PJ-12">
          <mxGeometry relative="1" as="geometry" />
        </mxCell>
        <mxCell id="R6oLTE6TlrkwnEL_-1PJ-4" value="Service Provider" style="shape=umlActor;verticalLabelPosition=bottom;verticalAlign=top;html=1;outlineConnect=0;" vertex="1" parent="1">
          <mxGeometry x="860" y="225" width="30" height="60" as="geometry" />
        </mxCell>
        <mxCell id="R6oLTE6TlrkwnEL_-1PJ-6" value="" style="endArrow=none;dashed=1;html=1;dashPattern=1 3;strokeWidth=2;rounded=0;" edge="1" parent="1">
          <mxGeometry width="50" height="50" relative="1" as="geometry">
            <mxPoint x="320" y="520" as="sourcePoint" />
            <mxPoint x="320" y="80" as="targetPoint" />
          </mxGeometry>
        </mxCell>
        <mxCell id="R6oLTE6TlrkwnEL_-1PJ-7" value="" style="endArrow=none;dashed=1;html=1;dashPattern=1 3;strokeWidth=2;rounded=0;" edge="1" parent="1">
          <mxGeometry width="50" height="50" relative="1" as="geometry">
            <mxPoint x="320" y="520" as="sourcePoint" />
            <mxPoint x="800" y="520" as="targetPoint" />
          </mxGeometry>
        </mxCell>
        <mxCell id="R6oLTE6TlrkwnEL_-1PJ-8" value="" style="endArrow=none;dashed=1;html=1;dashPattern=1 3;strokeWidth=2;rounded=0;" edge="1" parent="1">
          <mxGeometry width="50" height="50" relative="1" as="geometry">
            <mxPoint x="800" y="520" as="sourcePoint" />
            <mxPoint x="800" y="80" as="targetPoint" />
          </mxGeometry>
        </mxCell>
        <mxCell id="R6oLTE6TlrkwnEL_-1PJ-9" value="" style="endArrow=none;dashed=1;html=1;dashPattern=1 3;strokeWidth=2;rounded=0;" edge="1" parent="1">
          <mxGeometry width="50" height="50" relative="1" as="geometry">
            <mxPoint x="320" y="80" as="sourcePoint" />
            <mxPoint x="800" y="80" as="targetPoint" />
          </mxGeometry>
        </mxCell>
        <mxCell id="R6oLTE6TlrkwnEL_-1PJ-11" value="Server" style="text;html=1;align=center;verticalAlign=middle;resizable=0;points=[];autosize=1;strokeColor=none;fillColor=none;" vertex="1" parent="1">
          <mxGeometry x="520" y="530" width="60" height="30" as="geometry" />
        </mxCell>
        <mxCell id="R6oLTE6TlrkwnEL_-1PJ-25" style="edgeStyle=orthogonalEdgeStyle;rounded=0;orthogonalLoop=1;jettySize=auto;html=1;startArrow=none;" edge="1" parent="1" source="R6oLTE6TlrkwnEL_-1PJ-31" target="R6oLTE6TlrkwnEL_-1PJ-17">
          <mxGeometry relative="1" as="geometry" />
        </mxCell>
        <mxCell id="R6oLTE6TlrkwnEL_-1PJ-12" value="Authorized data Collector" style="shape=umlActor;verticalLabelPosition=bottom;verticalAlign=top;html=1;outlineConnect=0;" vertex="1" parent="1">
          <mxGeometry x="950" y="360" width="30" height="60" as="geometry" />
        </mxCell>
        <mxCell id="R6oLTE6TlrkwnEL_-1PJ-13" value="" style="endArrow=classic;html=1;rounded=0;exitX=0.5;exitY=0.5;exitDx=0;exitDy=0;exitPerimeter=0;" edge="1" parent="1" source="R6oLTE6TlrkwnEL_-1PJ-2" target="R6oLTE6TlrkwnEL_-1PJ-12">
          <mxGeometry width="50" height="50" relative="1" as="geometry">
            <mxPoint x="560" y="320" as="sourcePoint" />
            <mxPoint x="610" y="270" as="targetPoint" />
            <Array as="points">
              <mxPoint x="1020" y="390" />
            </Array>
          </mxGeometry>
        </mxCell>
        <mxCell id="R6oLTE6TlrkwnEL_-1PJ-42" style="edgeStyle=orthogonalEdgeStyle;rounded=0;orthogonalLoop=1;jettySize=auto;html=1;entryX=0.5;entryY=1;entryDx=0;entryDy=0;" edge="1" parent="1" source="R6oLTE6TlrkwnEL_-1PJ-17" target="R6oLTE6TlrkwnEL_-1PJ-27">
          <mxGeometry relative="1" as="geometry" />
        </mxCell>
        <mxCell id="R6oLTE6TlrkwnEL_-1PJ-17" value="" style="shape=cylinder3;whiteSpace=wrap;html=1;boundedLbl=1;backgroundOutline=1;size=15;" vertex="1" parent="1">
          <mxGeometry x="540" y="215" width="60" height="80" as="geometry" />
        </mxCell>
        <mxCell id="R6oLTE6TlrkwnEL_-1PJ-18" value="Information Database&lt;br&gt;" style="text;html=1;align=center;verticalAlign=middle;resizable=0;points=[];autosize=1;strokeColor=none;fillColor=none;" vertex="1" parent="1">
          <mxGeometry x="500" y="290" width="140" height="30" as="geometry" />
        </mxCell>
        <mxCell id="R6oLTE6TlrkwnEL_-1PJ-23" style="edgeStyle=orthogonalEdgeStyle;rounded=0;orthogonalLoop=1;jettySize=auto;html=1;exitX=1;exitY=0.5;exitDx=0;exitDy=0;startArrow=none;" edge="1" parent="1" source="R6oLTE6TlrkwnEL_-1PJ-33" target="R6oLTE6TlrkwnEL_-1PJ-17">
          <mxGeometry relative="1" as="geometry" />
        </mxCell>
        <mxCell id="R6oLTE6TlrkwnEL_-1PJ-21" value="Application Frontend" style="rounded=1;whiteSpace=wrap;html=1;" vertex="1" parent="1">
          <mxGeometry x="190" y="225" width="120" height="60" as="geometry" />
        </mxCell>
        <mxCell id="R6oLTE6TlrkwnEL_-1PJ-28" style="edgeStyle=orthogonalEdgeStyle;rounded=0;orthogonalLoop=1;jettySize=auto;html=1;" edge="1" parent="1" source="R6oLTE6TlrkwnEL_-1PJ-27" target="R6oLTE6TlrkwnEL_-1PJ-2">
          <mxGeometry relative="1" as="geometry" />
        </mxCell>
        <mxCell id="R6oLTE6TlrkwnEL_-1PJ-29" style="edgeStyle=orthogonalEdgeStyle;rounded=0;orthogonalLoop=1;jettySize=auto;html=1;entryX=0.5;entryY=0.5;entryDx=0;entryDy=0;entryPerimeter=0;" edge="1" parent="1" source="R6oLTE6TlrkwnEL_-1PJ-27" target="R6oLTE6TlrkwnEL_-1PJ-4">
          <mxGeometry relative="1" as="geometry">
            <Array as="points">
              <mxPoint x="830" y="180" />
              <mxPoint x="830" y="255" />
            </Array>
          </mxGeometry>
        </mxCell>
        <mxCell id="R6oLTE6TlrkwnEL_-1PJ-27" value="Provider Connection Service" style="rounded=1;whiteSpace=wrap;html=1;" vertex="1" parent="1">
          <mxGeometry x="640" y="150" width="120" height="60" as="geometry" />
        </mxCell>
        <mxCell id="R6oLTE6TlrkwnEL_-1PJ-31" value="Data Updating WebApp" style="whiteSpace=wrap;html=1;aspect=fixed;" vertex="1" parent="1">
          <mxGeometry x="650" y="330" width="80" height="80" as="geometry" />
        </mxCell>
        <mxCell id="R6oLTE6TlrkwnEL_-1PJ-32" value="" style="edgeStyle=orthogonalEdgeStyle;rounded=0;orthogonalLoop=1;jettySize=auto;html=1;endArrow=none;" edge="1" parent="1" source="R6oLTE6TlrkwnEL_-1PJ-12" target="R6oLTE6TlrkwnEL_-1PJ-31">
          <mxGeometry relative="1" as="geometry">
            <mxPoint x="880" y="370.0476190476189" as="sourcePoint" />
            <mxPoint x="570.047619047619" y="295" as="targetPoint" />
          </mxGeometry>
        </mxCell>
        <mxCell id="R6oLTE6TlrkwnEL_-1PJ-40" style="edgeStyle=orthogonalEdgeStyle;rounded=0;orthogonalLoop=1;jettySize=auto;html=1;" edge="1" parent="1" source="R6oLTE6TlrkwnEL_-1PJ-33" target="R6oLTE6TlrkwnEL_-1PJ-27">
          <mxGeometry relative="1" as="geometry">
            <Array as="points">
              <mxPoint x="420" y="180" />
            </Array>
          </mxGeometry>
        </mxCell>
        <mxCell id="R6oLTE6TlrkwnEL_-1PJ-33" value="Application Backend" style="rounded=1;whiteSpace=wrap;html=1;" vertex="1" parent="1">
          <mxGeometry x="360" y="225" width="120" height="60" as="geometry" />
        </mxCell>
        <mxCell id="R6oLTE6TlrkwnEL_-1PJ-34" value="" style="edgeStyle=orthogonalEdgeStyle;rounded=0;orthogonalLoop=1;jettySize=auto;html=1;exitX=1;exitY=0.5;exitDx=0;exitDy=0;endArrow=none;" edge="1" parent="1" source="R6oLTE6TlrkwnEL_-1PJ-21" target="R6oLTE6TlrkwnEL_-1PJ-33">
          <mxGeometry relative="1" as="geometry">
            <mxPoint x="310" y="255" as="sourcePoint" />
            <mxPoint x="540" y="255" as="targetPoint" />
          </mxGeometry>
        </mxCell>
      </root>
    </mxGraphModel>
  </diagram>
</mxfile>
